<?xml version="1.0" standalone="no"?>
<!DOCTYPE svg PUBLIC "-//W3C//DTD SVG 20010904//EN"
 "http://www.w3.org/TR/2001/REC-SVG-20010904/DTD/svg10.dtd">
<svg version="1.0" xmlns="http://www.w3.org/2000/svg"
 width="512.000000pt" height="512.000000pt" viewBox="0 0 512.000000 512.000000"
 preserveAspectRatio="xMidYMid meet">

<g transform="translate(0.000000,512.000000) scale(0.100000,-0.100000)"
fill="#000000" stroke="none">
<path d="M2952 4969 c-398 -53 -676 -265 -759 -579 -28 -104 -23 -288 10 -421
30 -122 97 -304 107 -292 4 4 17 37 30 73 71 196 152 349 234 437 71 77 130
106 223 111 87 5 133 -9 295 -89 65 -32 143 -63 173 -70 75 -17 159 -1 277 53
103 46 151 47 195 6 60 -56 80 -136 91 -378 l7 -155 42 85 c83 170 116 303
117 480 0 88 -5 144 -17 190 -54 202 -200 368 -316 358 -35 -3 -41 0 -72 42
-88 117 -373 184 -637 149z"/>
<path d="M2310 2585 c-531 -107 -797 -267 -947 -570 -33 -67 -62 -146 -92
-250 -17 -59 -29 -78 -74 -123 -49 -48 -56 -52 -80 -43 l-27 11 0 123 c0 107
-2 126 -18 140 -27 25 -372 25 -396 1 -13 -12 -16 -40 -16 -145 l0 -129 -26
-6 c-22 -6 -37 5 -113 80 -62 60 -96 86 -113 86 -34 0 -278 -246 -278 -281 0
-16 27 -51 91 -115 79 -80 90 -94 80 -111 -11 -22 -82 -33 -208 -33 -94 0 -95
-4 -87 -225 9 -220 1 -210 168 -200 l115 7 12 -25 c11 -24 8 -30 -29 -74 -22
-26 -61 -68 -86 -93 -69 -67 -66 -75 68 -207 142 -138 157 -149 188 -132 13 7
57 48 98 92 67 71 79 79 102 74 l26 -7 3 -131 c4 -115 6 -132 23 -145 15 -11
60 -14 196 -14 223 0 210 -10 210 162 l0 125 26 12 c26 11 31 8 119 -79 51
-49 100 -90 110 -90 10 0 76 57 147 127 162 161 161 154 42 274 -76 76 -86 90
-80 113 l6 26 129 0 c111 0 130 2 144 18 10 10 17 28 17 40 l0 22 526 0 c289
0 524 3 522 8 -1 4 -34 64 -71 134 -233 435 -342 764 -363 1093 -8 127 7 254
46 375 16 52 30 98 30 103 0 10 -9 9 -140 -18z m-1306 -1353 c139 -76 170
-262 63 -380 -54 -58 -106 -82 -182 -82 -100 0 -183 49 -228 135 -28 53 -30
164 -4 216 67 134 220 182 351 111z"/>
<path d="M3803 2597 c2 -6 20 -57 38 -112 33 -100 33 -101 33 -295 0 -173 -3
-209 -26 -320 -58 -268 -177 -564 -367 -907 l-40 -73 819 0 c812 0 820 0 840
20 16 16 19 29 15 53 -2 18 -16 120 -30 227 -66 509 -125 729 -243 915 -155
245 -436 394 -915 485 -127 24 -131 24 -124 7z"/>
<path d="M3002 1919 l-121 -92 25 -32 24 -32 -50 -432 c-27 -238 -50 -434 -50
-436 0 -3 133 -5 295 -5 229 0 295 3 295 13 0 6 -21 204 -47 439 l-47 428 27
28 26 27 -117 89 c-64 49 -122 90 -128 93 -5 2 -65 -38 -132 -88z"/>
</g>
</svg>
