<?xml version="1.0" standalone="no"?>
<!DOCTYPE svg PUBLIC "-//W3C//DTD SVG 20010904//EN"
 "http://www.w3.org/TR/2001/REC-SVG-20010904/DTD/svg10.dtd">
<svg version="1.0" xmlns="http://www.w3.org/2000/svg"
 width="512.000000pt" height="512.000000pt" viewBox="0 0 512.000000 512.000000"
 preserveAspectRatio="xMidYMid meet">

<g transform="translate(0.000000,512.000000) scale(0.100000,-0.100000)"
fill="#000000" stroke="none">
<path d="M2475 5110 c-58 -12 -94 -27 -147 -62 -57 -36 -2075 -2081 -2118
-2146 -40 -60 -70 -160 -70 -231 1 -263 238 -466 495 -423 139 23 131 16 709
601 292 295 684 691 873 881 l343 345 343 -345 c189 -190 581 -586 873 -881
447 -453 538 -540 586 -563 245 -120 533 13 604 279 29 108 7 242 -56 337 -43
65 -2061 2110 -2118 2147 -26 17 -68 37 -92 46 -54 19 -171 27 -225 15z"/>
<path d="M1797 2879 c-484 -491 -781 -784 -820 -811 -34 -23 -91 -54 -127 -69
l-65 -28 0 -935 c0 -928 0 -935 21 -962 11 -15 33 -37 48 -48 27 -21 40 -21
557 -24 l529 -3 0 383 c0 429 4 465 66 576 65 116 182 209 314 250 79 24 401
24 480 0 132 -41 249 -134 314 -250 62 -111 66 -147 66 -576 l0 -383 529 3
c517 3 530 3 557 24 15 11 37 33 48 48 21 27 21 34 21 962 l0 935 -65 28 c-36
15 -93 46 -127 69 -39 26 -337 321 -818 809 -417 423 -760 769 -764 770 -3 1
-347 -344 -764 -768z m258 -303 c86 -40 143 -114 160 -208 l7 -38 338 0 338 0
11 50 c20 95 70 157 159 198 97 44 222 21 298 -55 58 -58 79 -108 79 -193 0
-80 -17 -125 -70 -188 l-26 -31 36 -46 c111 -146 68 -343 -90 -421 -60 -29
-154 -35 -210 -14 -87 33 -155 112 -176 206 l-12 54 -337 0 -337 0 -12 -54
c-21 -94 -89 -173 -176 -206 -56 -21 -150 -15 -210 14 -158 78 -201 275 -90
421 l36 46 -26 31 c-132 156 -78 372 110 445 53 20 144 15 200 -11z"/>
</g>
</svg>
